<?xml version="1.0" standalone="no"?>
<!DOCTYPE svg PUBLIC "-//W3C//DTD SVG 20010904//EN"
 "http://www.w3.org/TR/2001/REC-SVG-20010904/DTD/svg10.dtd">
<svg version="1.0" xmlns="http://www.w3.org/2000/svg"
 width="1280.000000pt" height="1280.000000pt" viewBox="0 0 1280.000000 1280.000000"
 preserveAspectRatio="xMidYMid meet">
<metadata>
Created by potrace 1.14, written by Peter Selinger 2001-2017
</metadata>
<g transform="translate(0.000000,1280.000000) scale(0.100000,-0.100000)"
fill="#000000" stroke="none">
<path d="M6118 12795 c-2 -1 -55 -6 -118 -9 -63 -4 -135 -9 -160 -11 -140 -13
-201 -20 -315 -36 -109 -15 -128 -18 -155 -23 -14 -3 -43 -7 -65 -11 -22 -3
-47 -7 -55 -10 -8 -2 -31 -6 -50 -9 -19 -3 -46 -8 -60 -11 -14 -3 -34 -7 -45
-9 -69 -14 -341 -79 -348 -83 -5 -3 -32 -11 -60 -18 -29 -7 -77 -21 -107 -30
-30 -9 -59 -17 -65 -19 -5 -2 -17 -6 -25 -9 -8 -3 -40 -13 -70 -22 -30 -9 -85
-28 -122 -41 -140 -50 -214 -77 -243 -89 -31 -13 -54 -21 -67 -24 -5 -1 -24
-10 -43 -21 -20 -11 -40 -20 -45 -20 -11 0 -64 -24 -268 -121 -78 -37 -146
-69 -150 -70 -4 -1 -23 -12 -42 -23 -19 -12 -53 -30 -75 -41 -22 -11 -42 -22
-45 -25 -6 -6 -37 -23 -127 -71 -35 -18 -63 -37 -63 -41 0 -4 -5 -8 -10 -8
-12 0 -189 -110 -305 -189 -44 -30 -94 -64 -110 -76 -38 -25 -268 -197 -275
-205 -3 -3 -27 -23 -55 -45 -27 -22 -55 -44 -61 -50 -7 -5 -30 -25 -54 -44
-23 -19 -57 -49 -76 -68 -19 -18 -36 -33 -39 -33 -6 0 -146 -133 -269 -256
-142 -142 -244 -251 -356 -384 -25 -29 -54 -64 -65 -76 -11 -12 -29 -35 -40
-50 -11 -16 -28 -36 -37 -46 -10 -10 -18 -22 -18 -27 0 -5 -4 -11 -8 -13 -10
-4 -110 -136 -188 -248 -32 -47 -62 -86 -66 -88 -5 -2 -8 -8 -8 -14 0 -5 -15
-30 -32 -56 -18 -26 -37 -54 -43 -64 -5 -9 -44 -72 -86 -140 -41 -67 -78 -130
-82 -138 -4 -8 -23 -42 -42 -75 -19 -33 -51 -91 -71 -130 -19 -38 -40 -77 -45
-85 -10 -18 -139 -289 -139 -294 0 -2 -7 -20 -15 -40 -8 -20 -15 -39 -14 -42
0 -4 -3 -10 -8 -13 -5 -3 -22 -40 -37 -81 -16 -41 -32 -79 -36 -85 -3 -5 -13
-30 -20 -55 -7 -25 -17 -49 -20 -55 -8 -12 -117 -335 -124 -368 -3 -12 -19
-67 -35 -122 -17 -55 -31 -108 -31 -117 0 -10 -5 -18 -11 -18 -5 0 -7 -5 -4
-10 4 -6 1 -26 -5 -44 -6 -19 -13 -47 -16 -63 -3 -15 -9 -44 -14 -63 -5 -19
-11 -46 -14 -60 -2 -14 -11 -56 -19 -95 -9 -38 -18 -86 -21 -105 -3 -19 -10
-58 -15 -86 -5 -28 -12 -71 -15 -95 -3 -24 -8 -53 -10 -64 -2 -11 -7 -49 -11
-85 -4 -36 -9 -74 -11 -85 -2 -10 -6 -49 -10 -85 -3 -36 -7 -81 -10 -100 -25
-207 -25 -898 1 -1115 2 -22 7 -70 9 -107 3 -37 8 -78 10 -90 3 -13 8 -45 10
-73 3 -27 8 -61 10 -75 2 -14 7 -46 10 -71 7 -49 14 -89 22 -129 3 -14 7 -43
10 -65 2 -22 6 -46 9 -54 3 -7 12 -48 21 -90 8 -42 27 -123 40 -181 14 -58 27
-113 29 -123 2 -10 9 -32 14 -50 6 -18 20 -66 32 -107 25 -92 95 -312 114
-360 7 -19 30 -80 50 -135 20 -55 41 -109 45 -120 5 -11 30 -68 54 -127 25
-59 69 -155 97 -215 29 -59 53 -110 54 -113 2 -8 92 -180 137 -262 61 -111
198 -338 225 -374 13 -17 23 -36 23 -42 0 -7 4 -12 8 -12 5 0 15 -12 23 -27 8
-16 17 -30 20 -33 3 -3 25 -34 49 -70 24 -36 93 -129 153 -208 103 -136 117
-154 160 -205 120 -141 130 -153 210 -241 127 -141 381 -389 517 -506 56 -49
199 -168 226 -190 77 -61 276 -208 354 -261 136 -93 369 -239 380 -239 6 0 10
-4 10 -8 0 -4 12 -13 28 -20 15 -6 63 -32 107 -57 44 -25 123 -67 175 -93 52
-26 97 -50 98 -54 2 -5 8 -8 13 -8 5 0 48 -19 96 -41 49 -23 124 -57 167 -76
44 -19 96 -41 115 -49 20 -9 45 -20 56 -25 11 -5 38 -15 60 -22 22 -8 85 -31
140 -52 83 -30 128 -46 175 -60 3 -1 12 -5 20 -8 25 -10 144 -47 168 -52 12
-2 26 -6 30 -9 5 -3 19 -7 33 -10 13 -3 82 -21 153 -40 70 -19 140 -37 155
-40 14 -3 91 -19 171 -36 80 -16 165 -32 190 -35 25 -3 52 -8 61 -11 10 -2 30
-6 45 -8 48 -7 117 -17 149 -22 17 -3 44 -7 60 -8 126 -12 194 -18 215 -22
150 -25 930 -24 1120 0 14 2 60 7 102 10 42 4 87 9 99 11 12 2 39 5 60 7 22 1
39 4 39 7 0 4 15 6 33 7 45 2 116 12 232 34 28 5 66 12 85 15 19 3 42 8 50 10
8 2 26 6 40 9 25 5 159 33 195 42 11 3 29 7 40 9 11 3 76 21 145 41 69 19 130
36 135 38 212 58 573 191 800 294 111 50 429 210 509 256 44 25 83 46 88 46 4
0 8 5 8 10 0 6 6 10 14 10 7 0 25 9 38 20 14 10 28 16 32 13 3 -3 6 -2 6 3 0
5 17 18 38 29 20 11 46 28 56 38 11 9 24 17 28 17 5 0 14 4 21 10 7 5 57 40
112 76 101 67 266 184 275 195 3 3 12 10 21 15 16 9 67 49 114 89 13 11 33 27
45 35 12 8 34 26 49 40 14 14 42 37 61 52 19 14 51 41 70 58 19 18 73 66 120
109 104 94 334 324 415 415 33 38 69 78 80 91 60 67 91 103 200 242 132 166
232 302 254 342 8 14 17 28 21 31 8 6 93 136 174 269 65 105 77 127 148 256
27 50 53 97 58 105 6 8 15 26 21 40 5 14 17 39 26 55 8 17 31 62 49 100 19 39
39 78 44 87 6 10 10 25 10 33 0 8 5 15 10 15 6 0 10 8 10 18 0 10 4 22 8 28
13 14 75 164 75 180 0 8 4 14 9 14 4 0 8 8 8 18 0 10 4 22 9 28 5 5 21 45 36
89 15 44 31 85 35 90 4 6 11 24 15 40 10 35 10 35 18 55 7 18 61 182 63 193 1
4 2 8 4 10 1 1 3 9 5 17 1 8 13 49 25 90 19 62 47 169 64 240 2 8 11 42 19 75
9 33 18 77 21 99 4 21 8 41 10 45 2 3 7 22 10 41 3 19 8 49 11 65 16 88 35
194 39 220 8 55 25 179 31 230 3 28 8 64 10 80 20 141 29 359 29 685 0 352 -8
499 -39 750 -2 19 -7 55 -10 80 -3 25 -8 56 -10 70 -3 14 -7 43 -10 65 -8 55
-13 84 -20 125 -27 143 -26 142 -55 275 -37 172 -123 494 -149 560 -5 11 -23
65 -41 120 -31 97 -98 279 -125 340 -7 17 -23 54 -35 84 -25 64 -55 131 -118
261 -25 52 -46 97 -46 100 -1 4 -84 163 -142 270 -11 19 -23 38 -27 41 -5 3
-8 9 -7 13 1 8 -155 269 -187 312 -13 17 -23 34 -23 38 0 4 -9 16 -20 28 -11
12 -20 28 -20 35 0 7 -3 13 -7 13 -5 0 -21 21 -38 48 -16 26 -35 54 -42 62 -6
8 -46 62 -88 120 -43 58 -83 110 -91 116 -8 6 -14 14 -14 18 0 6 -118 153
-155 192 -5 6 -35 40 -65 75 -149 172 -453 476 -600 600 -14 11 -45 38 -70 59
-113 96 -109 93 -196 160 -102 79 -129 100 -203 152 -36 26 -71 52 -78 58 -7
5 -16 10 -22 10 -5 0 -11 3 -13 8 -1 4 -52 40 -113 79 -60 40 -115 77 -122 82
-7 6 -17 11 -22 11 -5 0 -16 6 -23 13 -15 13 -34 25 -118 70 -30 17 -57 33
-60 37 -3 3 -25 16 -50 29 -25 13 -76 40 -115 61 -83 45 -238 124 -245 125 -3
0 -32 13 -65 29 -137 63 -233 106 -240 106 -3 0 -24 9 -48 19 -185 84 -747
264 -927 297 -14 3 -34 8 -45 11 -11 3 -29 7 -40 9 -11 2 -54 10 -95 19 -99
22 -91 20 -200 39 -52 9 -104 18 -115 20 -11 2 -42 7 -70 10 -27 4 -61 9 -75
11 -14 2 -52 7 -85 10 -33 4 -73 8 -90 10 -16 2 -64 6 -105 10 -41 3 -97 8
-125 11 -54 5 -712 14 -717 9z"/>
</g>
</svg>
